# xmcd CD database file
#
# Track frame offsets:
#	150
#	13451
#	25955
#	37139
#	54979
#	86782
#	104952
#	126275
#	151802
#	187154
#	203942
#	224561
#	249757
#	271031
#	296227
#	320200
#	342123
#
# Disc length: 4683 seconds
#
# Revision: 0
# Processed by: cddbd v1.5.2PL0 Copyright (c) Steve Scherf et al.
# Submitted via: CDex 1.51
#
DISCID=11124911
DTITLE=Chris Barber - MEMORIES OF MY TRIP
DYEAR=2011
DGENRE=Jazz
TTITLE0=Memories Of My Trip
TTITLE1=When Things Go Wrong
TTITLE2=Do Lord Do Remember Me
TTITLE3=Weeping Willow
TTITLE4=Kansas City
TTITLE5=Love Me Or Leave Me
TTITLE6=Can't Be Satisfied
TTITLE7=Diggin My Potatoes
TTITLE8=Going Up The River
TTITLE9=How Long Blues
TTITLE10=Going Home
TTITLE11=Didn't He Ramble
TTITLE12=Lonesome Road
TTITLE13=I'll Be Rested
TTITLE14=Precious Lord
TTITLE15=Couldn't keep It To Myself
TTITLE16=Another Sad One
EXTD=YEAR: 2011
EXTT0=
EXTT1=
EXTT2=
EXTT3=
EXTT4=
EXTT5=
EXTT6=
EXTT7=
EXTT8=
EXTT9=
EXTT10=
EXTT11=
EXTT12=
EXTT13=
EXTT14=
EXTT15=
EXTT16=
PLAYORDER=
